<?xml version="1.0" encoding="UTF-8" standalone="no"?>
<!-- Created with Inkscape (http://www.inkscape.org/) -->

<svg
   xmlns:dc="http://purl.org/dc/elements/1.1/"
   xmlns:cc="http://creativecommons.org/ns#"
   xmlns:rdf="http://www.w3.org/1999/02/22-rdf-syntax-ns#"
   xmlns:svg="http://www.w3.org/2000/svg"
   xmlns="http://www.w3.org/2000/svg"
   xmlns:sodipodi="http://sodipodi.sourceforge.net/DTD/sodipodi-0.dtd"
   xmlns:inkscape="http://www.inkscape.org/namespaces/inkscape"
   width="60.740219"
   height="21.968924"
   id="svg2"
   version="1.1"
   inkscape:version="0.48.5 r10040"
   sodipodi:docname="menu-arrow.svg">
  <defs
     id="defs4" />
  <sodipodi:namedview
     id="base"
     pagecolor="#ffffff"
     bordercolor="#666666"
     borderopacity="1.0"
     inkscape:pageopacity="0.0"
     inkscape:pageshadow="2"
     inkscape:zoom="5.6"
     inkscape:cx="-22.443117"
     inkscape:cy="9.098291"
     inkscape:document-units="px"
     inkscape:current-layer="g3805"
     showgrid="false"
     fit-margin-top="0"
     fit-margin-left="0"
     fit-margin-right="0"
     fit-margin-bottom="0"
     inkscape:window-width="1600"
     inkscape:window-height="837"
     inkscape:window-x="0"
     inkscape:window-y="27"
     inkscape:window-maximized="1" />
  <metadata
     id="metadata7">
    <rdf:RDF>
      <cc:Work
         rdf:about="">
        <dc:format>image/svg+xml</dc:format>
        <dc:type
           rdf:resource="http://purl.org/dc/dcmitype/StillImage" />
        <dc:title></dc:title>
      </cc:Work>
    </rdf:RDF>
  </metadata>
  <g
     inkscape:label="Layer 1"
     inkscape:groupmode="layer"
     id="layer1"
     transform="translate(-624.83405,-666.26184)">
    <g
       id="g3805">
      <g
         transform="matrix(2.6268451,-0.35733018,0.35733018,2.6268451,-1244.6352,-1123.4868)"
         style="font-size:14px;font-style:normal;font-weight:normal;text-align:center;line-height:125%;letter-spacing:0px;word-spacing:0px;text-anchor:middle;fill:#999999;fill-opacity:1;stroke:none;font-family:Sans"
         id="flowRoot3015">
        <path
           d="m 609.26074,765.91867 c 0.17318,-0.23697 0.31445,-0.3509 0.42383,-0.3418 0.10937,0.009 0.18001,0.0547 0.21191,0.13672 0.0319,0.082 0.0593,0.15952 0.082,0.23243 0.0228,0.0684 0.0456,0.1709 0.0684,0.30761 0.0228,0.13217 -0.0706,0.39194 -0.28027,0.7793 -0.20508,0.38737 -0.18913,0.4375 0.0478,0.15039 0.23698,-0.29166 0.43978,-0.47167 0.6084,-0.54004 0.16862,-0.0729 0.32357,-0.0729 0.46485,0 0.14127,0.0684 0.23014,0.15268 0.2666,0.25293 0.0364,0.10027 0.0592,0.2142 0.0684,0.3418 0.009,0.12761 0.0273,0.20052 0.0547,0.21875 0.0273,0.0182 0.17774,-0.11849 0.45118,-0.41016 0.27343,-0.29166 0.51269,-0.48307 0.71777,-0.57422 0.20963,-0.0957 0.38281,-0.1162 0.51953,-0.0615 0.13671,0.0547 0.2552,0.16179 0.35547,0.32129 0.10481,0.15951 0.23925,0.39193 0.40332,0.69726 0.16406,0.30535 0.33268,0.53093 0.50586,0.67676 0.17773,0.14128 0.33495,0.22559 0.47168,0.25293 0.13671,0.0273 0.37369,-0.0456 0.71094,-0.21875 0.33723,-0.17773 0.41242,-0.21191 0.22558,-0.10254 -0.18685,0.10938 -0.37598,0.20508 -0.56738,0.28711 -0.18686,0.0775 -0.31902,0.139 -0.39649,0.18457 -0.0775,0.041 -0.18457,0.0775 -0.32128,0.10938 -0.13217,0.0319 -0.2575,0.0182 -0.37598,-0.041 -0.1185,-0.0592 -0.23243,-0.13444 -0.3418,-0.22558 -0.10938,-0.0957 -0.2461,-0.25065 -0.41015,-0.46485 -0.16407,-0.21874 -0.28256,-0.38053 -0.35547,-0.48535 -0.0684,-0.10481 -0.15496,-0.14811 -0.25977,-0.12988 -0.10482,0.0182 -0.2142,0.0775 -0.32812,0.17773 -0.11394,0.0957 -0.27117,0.23471 -0.47168,0.41699 -0.19597,0.1823 -0.35092,0.37371 -0.46485,0.57422 -0.10937,0.20053 -0.17546,0.33041 -0.19824,0.38965 -0.0228,0.0547 -0.082,0.13444 -0.17773,0.23926 -0.0957,0.10026 -0.18685,0.139 -0.27344,0.11621 -0.0866,-0.0273 -0.15039,-0.0729 -0.19141,-0.13672 -0.0365,-0.0684 -0.0387,-0.18684 -0.007,-0.35547 0.0319,-0.16861 0.057,-0.3304 0.0752,-0.48535 0.0228,-0.15494 0.0387,-0.32356 0.0478,-0.50586 0.0137,-0.18229 -0.0387,-0.27799 -0.15722,-0.28711 -0.11849,-0.0137 -0.31674,0.11622 -0.59473,0.38965 -0.27344,0.26888 -0.44662,0.47852 -0.51953,0.62891 -0.0729,0.15039 -0.13216,0.25749 -0.17774,0.32129 -0.041,0.0638 -0.0866,0.11393 -0.13671,0.15039 -0.0456,0.0365 -0.14128,0.0319 -0.28711,-0.0137 -0.14128,-0.0456 -0.22103,-0.10481 -0.23926,-0.17773 -0.0182,-0.0729 0.0159,-0.22102 0.10254,-0.44434 0.0866,-0.2233 0.20052,-0.56737 0.34179,-1.03222 0.14128,-0.46484 0.23926,-0.75879 0.29395,-0.88184 0.0547,-0.12304 -0.32357,0.10027 -1.13477,0.66992 -0.81575,0.56967 -1.04361,0.70867 -0.68359,0.417 0.35547,-0.29167 0.70638,-0.55827 1.05274,-0.79981 0.34635,-0.24609 0.60611,-0.48762 0.77929,-0.72461"
           style="font-variant:normal;font-stretch:normal;fill:#999999;font-family:James Fajardo;-inkscape-font-specification:James Fajardo"
           id="path3834"
           inkscape:connector-curvature="0" />
        <path
           d="m 616.15137,765.75461 c 0.30533,-0.0228 0.4899,0.0296 0.55371,0.15723 0.0684,0.12305 0.10026,0.28255 0.0957,0.47851 -0.005,0.19141 -0.0957,0.35548 -0.27344,0.49219 -0.17773,0.13217 -0.41243,0.26433 -0.7041,0.39648 -0.082,0.0319 -0.15723,0.0501 -0.22558,0.0547 -0.0638,10e-6 -0.11849,-0.002 -0.16407,-0.007 -0.041,-0.009 -0.0752,-0.0159 -0.10254,-0.0205 -0.0228,-0.009 -0.0365,-0.007 -0.041,0.007 -0.082,0.13217 -0.12533,0.26433 -0.12988,0.39649 0,0.13216 0.0433,0.25521 0.12988,0.36914 0.0911,0.10938 0.1914,0.17318 0.30078,0.1914 0.10937,0.0182 0.22331,0.016 0.3418,-0.007 0.11849,-0.0273 0.33724,-0.10709 0.65625,-0.23926 0.31901,-0.13216 0.54003,-0.2552 0.66308,-0.36914 0.1276,-0.11849 0.24837,-0.23242 0.36231,-0.3418 0.11393,-0.10937 0.12988,-0.10937 0.0479,0 -0.082,0.10938 -0.18457,0.24154 -0.30762,0.39649 -0.11849,0.15495 -0.26888,0.3099 -0.45117,0.46484 -0.17774,0.1504 -0.32357,0.26661 -0.4375,0.34863 -0.11393,0.082 -0.2666,0.15723 -0.45801,0.22559 -0.18685,0.0638 -0.37142,0.0843 -0.55371,0.0615 -0.18229,-0.0273 -0.31901,-0.0706 -0.41015,-0.12988 -0.0911,-0.0592 -0.17546,-0.12988 -0.25293,-0.21191 -0.0775,-0.082 -0.14128,-0.17773 -0.19141,-0.28711 -0.0501,-0.11393 -0.0752,-0.2666 -0.0752,-0.45801 -0.005,-0.19596 0.0387,-0.40787 0.12989,-0.63574 0.0957,-0.22786 0.2028,-0.41699 0.32129,-0.56739 0.11848,-0.15038 0.27799,-0.30077 0.47851,-0.45117 0.20508,-0.15494 0.4375,-0.25976 0.69727,-0.31445 m 0.007,0.61523 c -0.0319,-0.0319 -0.11165,-0.0159 -0.23925,0.0479 -0.12305,0.0638 -0.2142,0.13672 -0.27344,0.21875 -0.0547,0.0775 -0.0638,0.13444 -0.0273,0.17089 0.0365,0.0365 0.11394,0.0228 0.23243,-0.041 0.11848,-0.0684 0.21191,-0.13444 0.28027,-0.19824 0.0729,-0.0684 0.082,-0.13444 0.0273,-0.19825"
           style="font-variant:normal;font-stretch:normal;fill:#999999;font-family:James Fajardo;-inkscape-font-specification:James Fajardo"
           id="path3836"
           inkscape:connector-curvature="0" />
        <path
           d="m 618.41406,765.89816 c 0.0957,-0.0456 0.21647,-0.0364 0.36231,0.0274 0.15039,0.0638 0.18229,0.1823 0.0957,0.35547 -0.082,0.17318 -0.21875,0.46029 -0.41016,0.86132 -0.1914,0.39649 -0.21191,0.50587 -0.0615,0.32813 0.15495,-0.18229 0.33952,-0.36686 0.55371,-0.55371 0.21875,-0.18684 0.37598,-0.30761 0.47168,-0.36231 0.0957,-0.0547 0.19824,-0.0957 0.30762,-0.12304 0.11393,-0.0273 0.24153,-0.0205 0.38281,0.0205 0.14127,0.041 0.26204,0.15724 0.36231,0.34864 0.10025,0.18685 0.15266,0.49903 0.15722,0.93652 0.009,0.43295 0.11621,0.64486 0.32129,0.63574 0.20963,-0.009 0.41243,-0.0843 0.6084,-0.22558 0.19596,-0.14583 0.34179,-0.29167 0.4375,-0.4375 0.0957,-0.15039 0.13671,-0.1914 0.12305,-0.12305 -0.0137,0.0684 -0.0661,0.16862 -0.15723,0.30078 -0.0911,0.13217 -0.28484,0.33725 -0.58105,0.61524 -0.29623,0.27799 -0.55372,0.41927 -0.77247,0.42382 -0.21419,0.005 -0.37142,-0.082 -0.47168,-0.25976 -0.0957,-0.17773 -0.1595,-0.46028 -0.1914,-0.84766 -0.0273,-0.39192 -0.0775,-0.59016 -0.15039,-0.59472 -0.0729,-0.009 -0.23243,0.0638 -0.47852,0.21875 -0.24609,0.15039 -0.47168,0.34863 -0.67676,0.59472 -0.20507,0.2461 -0.37369,0.45574 -0.50586,0.62891 -0.1276,0.16862 -0.24381,0.27116 -0.34863,0.30762 -0.10482,0.0365 -0.1914,0.009 -0.25976,-0.082 -0.0638,-0.0911 -0.0866,-0.20279 -0.0684,-0.33496 0.0228,-0.13215 0.0638,-0.33495 0.12304,-0.60839 0.0593,-0.27344 0.14356,-0.56055 0.25293,-0.86133 0.10938,-0.30534 0.0843,-0.4056 -0.0752,-0.30078 -0.15951,0.10482 -0.35319,0.26432 -0.58106,0.47851 -0.23242,0.20964 -0.15267,0.10938 0.23926,-0.30078 0.39649,-0.41471 0.61524,-0.65624 0.65625,-0.72461 0.0456,-0.0684 0.0889,-0.12988 0.12988,-0.18457 0.041,-0.0592 0.10938,-0.11165 0.20508,-0.15723"
           style="font-variant:normal;font-stretch:normal;fill:#999999;font-family:James Fajardo;-inkscape-font-specification:James Fajardo"
           id="path3838"
           inkscape:connector-curvature="0" />
        <path
           d="m 624.21094,766.35617 c 0.0957,-0.0501 0.17773,-0.0684 0.24609,-0.0547 0.0729,0.0137 0.12304,0.0479 0.15039,0.10254 0.0273,0.0501 0,0.24838 -0.082,0.59473 -0.082,0.3418 -0.13672,0.63347 -0.16406,0.875 -0.0273,0.24154 -0.005,0.41244 0.0684,0.5127 0.0729,0.0957 0.19824,0.12988 0.37597,0.10253 0.18229,-0.0273 0.37826,-0.1481 0.58789,-0.3623 0.20964,-0.21419 0.23242,-0.2233 0.0684,-0.0273 -0.15951,0.19141 -0.3099,0.36458 -0.45117,0.51953 -0.13672,0.15495 -0.25749,0.25293 -0.3623,0.29394 -0.10482,0.041 -0.22787,0.0501 -0.36914,0.0273 -0.13672,-0.0228 -0.24838,-0.0775 -0.33496,-0.16407 -0.0866,-0.0866 -0.15495,-0.18912 -0.20508,-0.30761 -0.0501,-0.12305 -0.0547,-0.27116 -0.0137,-0.44434 0.041,-0.17773 0.0661,-0.3304 0.0752,-0.45801 0.0137,-0.1276 -0.0365,-0.12076 -0.15039,0.0205 -0.11393,0.14128 -0.25521,0.29623 -0.42383,0.46484 -0.16406,0.16407 -0.33952,0.3099 -0.52636,0.4375 -0.18685,0.12761 -0.33497,0.20964 -0.44434,0.2461 -0.10482,0.0365 -0.21192,0.0638 -0.32129,0.082 -0.10482,0.0137 -0.2028,-0.007 -0.29395,-0.0615 -0.0911,-0.0547 -0.14811,-0.139 -0.17089,-0.25293 -0.0228,-0.11849 0,-0.29167 0.0684,-0.51954 0.0684,-0.23241 0.18229,-0.54687 0.34179,-0.94335 0.16406,-0.39648 0.11849,-0.6084 -0.13672,-0.63575 -0.2552,-0.0273 -0.44661,-0.082 -0.57421,-0.16406 -0.12761,-0.0866 -0.0501,-0.0752 0.23242,0.0342 0.28255,0.10482 0.47851,0.0934 0.58789,-0.0342 0.10937,-0.1276 0.20963,-0.20279 0.30078,-0.22559 0.0957,-0.0228 0.18457,-0.0182 0.2666,0.0137 0.0866,0.0319 0.14128,0.0889 0.16406,0.1709 0.0274,0.0775 0.0228,0.1709 -0.0137,0.28027 -0.0319,0.10938 -0.14811,0.39649 -0.34863,0.86133 -0.19597,0.46484 -0.20052,0.66992 -0.0137,0.61523 0.18684,-0.0547 0.5218,-0.32356 1.00488,-0.80664 0.48307,-0.48307 0.77018,-0.74739 0.86133,-0.79297"
           style="font-variant:normal;font-stretch:normal;fill:#999999;font-family:James Fajardo;-inkscape-font-specification:James Fajardo"
           id="path3840"
           inkscape:connector-curvature="0" />
      </g>
      <g
         transform="translate(13.214285,-17.857143)"
         style="stroke:#999999;stroke-opacity:1"
         id="g3031">
        <path
           style="fill:none;stroke:#999999;stroke-width:1.29999995;stroke-linecap:butt;stroke-linejoin:miter;stroke-miterlimit:4;stroke-opacity:1;stroke-dasharray:none"
           d="m 646.3871,699.11633 c 7.21621,5.37661 17.77854,3.50153 24.99475,0.50229"
           id="path3025"
           inkscape:connector-curvature="0"
           sodipodi:nodetypes="cc" />
        <path
           style="fill:none;stroke:#999999;stroke-width:1.29999995;stroke-linecap:butt;stroke-linejoin:miter;stroke-miterlimit:4;stroke-opacity:1;stroke-dasharray:none"
           d="m 665.39559,697.42881 6.31439,2.07446 -2.99889,5.93464"
           id="path3029"
           inkscape:connector-curvature="0"
           sodipodi:nodetypes="ccc" />
      </g>
    </g>
  </g>
</svg>
